<?xml version="1.0" encoding="UTF-8"?>
<svg id="Layer_1" data-name="Layer 1" xmlns="http://www.w3.org/2000/svg" viewBox="0 0 2250 2250">
  <path d="M744.47,2249.3c-163.74,1.23-727.9,1.08-744.7.34-.45-11.44.18-22.54-.07-44.44,4.58-141.93-9.11-562.17,5.36-588.66,24.22-7.41,48.18-18.32,68.99-34.06,66.07-52.34,64.53-98.16-13.69-134.38-19.06-10.74-46.81-23.8-60.53-32.5,10.76-36.72-22.63-1000.9,14.16-1020.3,129.58-88.84,290.97-123.8,446.49-106.75,264.72,22,453.85,196.45,501.1,456.86,7.78,21.71,20.95,43.16,44.43,49.65,22.55,8.78,51.06,16.64,72.25,27.92,38.99,22.34,53.19,70.46,45.99,114.09-1.37,13.44-7.73,30.56,5.47,39.81,22.39,11.39,42.18,29.77,34.95,57.45-3.37,12.48-12.01,25.58-3.62,38.02,14.85,18.94,20.84,44,7.43,65.46-31.44,39.74-2.03,69.48-3.78,118.94-13.31,93.65-119.09,130.84-193.06,167.64-109.63,53.99-237.07,90.76-334.22,167.55-80.44,64.08-148.71,155.54-176.15,253.47-61.37,195.94,116.89,338.69,283.15,403.86l.05.03Z"/>
</svg>