<?xml version="1.0" encoding="UTF-8"?>
<svg id="Layer_1" data-name="Layer 1" xmlns="http://www.w3.org/2000/svg" viewBox="0 0 2250 2250">
  <path d="M2248.42,398.79c3.78,33.76.67,505.43,1.62,659.21-.1,2.86-1.52,3.95-3.55,7.88-28.53,48.17-68.64,87.24-113.59,121.95-16.62,13.38-32.38,31.67-33.71,53.83-1.43,32.62,19.92,47.74,45.07,62.81,30.7,17.69,66.51,24.61,101.3,25.58,2.28.14,3.54.3,4.07.61.27.15.37.34.4.56.04,5.91,0,39.2.02,89.89.59,174.78.38,734.63-.67,828.93-130.2.85-375.46-.61-657.91,0-135.38,1.26-412.38-.91-492.26,0-1.22-.08-1.65.55,1.93-4.43,19.37-26.76,57.87-80.61,81.99-114.02,20.97-29.81,47.6-62.44,71.05-93.08,56.6-75.27,124.82-139.86,205.33-189.07,92.37-54.89,179.71-102.24,270.02-163.21,11.49-7.58,18.61-11.84,27.01-20.32,35.73-35.61,49.95-94.69,28.01-141.04-21.64-49.16-77.82-47.45-121.12-29.49-23.51,9.72-45.14,19.97-69.06,27.61-43.47,14.44-90.33,25.19-136.18,16.22-42.22-6.55-69.07-27.79-88.2-65.74-6.83-12.75-15.95-24.6-29.55-30.14-9.97-4.37-22.08-5.2-32.26-9.19-11.3-4.29-20.96-12.73-26.09-23.75-5.71-10.7-3.71-25.37-11.01-35.19-5.19-6.56-14.38-8.74-21.78-12.21-17.35-7.14-27.78-25.45-25.06-43.82.79-7.41,3.81-14.97,4.82-22.27,1.29-7.88-1.2-14.19-6.09-19.8-4.63-5.72-10.18-11.03-16.07-16.37-29.43-24.74-58.54-57.51-51.41-98.9,1.53-8.73,4.95-15.96,8.48-24.19,5.27-11.77,10.7-24.91,16.07-36.58,11.7-24.49,22.58-43.89,11.93-71.74-6.52-19.42-17.02-36.98-28.44-54.09-111.44-170.98-109.22-369.18-4.42-539.21,87.48-144.98,226.87-257.12,391.71-299.31,254.08-75.54,576.61,12.08,697.55,262.01l.04.1Z"/>
</svg>